<svg width="24" height="24" viewBox="0 0 24 24" fill="none" xmlns="http://www.w3.org/2000/svg">
<path d="M4.8 5.6999H7.5L9.3 3.8999H14.7L16.5 5.6999H19.2C19.6774 5.6999 20.1352 5.88954 20.4728 6.22711C20.8104 6.56468 21 7.02251 21 7.4999V18.2999C21 18.7773 20.8104 19.2351 20.4728 19.5727C20.1352 19.9103 19.6774 20.0999 19.2 20.0999H4.8C4.32261 20.0999 3.86477 19.9103 3.52721 19.5727C3.18964 19.2351 3 18.7773 3 18.2999V7.4999C3 7.02251 3.18964 6.56468 3.52721 6.22711C3.86477 5.88954 4.32261 5.6999 4.8 5.6999ZM12 8.3999C10.8065 8.3999 9.66193 8.87401 8.81802 9.71792C7.97411 10.5618 7.5 11.7064 7.5 12.8999C7.5 14.0934 7.97411 15.238 8.81802 16.0819C9.66193 16.9258 10.8065 17.3999 12 17.3999C13.1935 17.3999 14.3381 16.9258 15.182 16.0819C16.0259 15.238 16.5 14.0934 16.5 12.8999C16.5 11.7064 16.0259 10.5618 15.182 9.71792C14.3381 8.87401 13.1935 8.3999 12 8.3999ZM12 10.1999C12.7161 10.1999 13.4028 10.4844 13.9092 10.9907C14.4155 11.4971 14.7 12.1838 14.7 12.8999C14.7 13.616 14.4155 14.3027 13.9092 14.8091C13.4028 15.3154 12.7161 15.5999 12 15.5999C11.2839 15.5999 10.5972 15.3154 10.0908 14.8091C9.58446 14.3027 9.3 13.616 9.3 12.8999C9.3 12.1838 9.58446 11.4971 10.0908 10.9907C10.5972 10.4844 11.2839 10.1999 12 10.1999Z" fill="black"/>
</svg>
