<svg xmlns="http://www.w3.org/2000/svg" width="81" height="24" fill="none"><path fill="#708FFF" d="M18.334 18H5.214C2.525 18 .382 15.797.504 13.162l.127-2.744C.746 7.946 2.821 6 5.34 6H6.67c1.994 0 3.61 1.587 3.61 3.545 0 1.959 1.617 3.546 3.611 3.546h1.944c.92 0 1.667-.733 1.667-1.636 0-.904.746-1.637 1.666-1.637H20c1.38 0 2.5 1.1 2.5 2.455v1.636c0 2.26-1.865 4.091-4.166 4.091Z"/><path fill="#000" d="M31.55 19 28.288 8.2h1.321l2.56 8.909h.091L34.813 8.2h1.328l2.532 8.887h.098l2.56-8.887h1.321L39.39 19h-1.294l-2.56-8.852h-.133L32.843 19H31.55Zm12.955 0V8.2h1.259V19h-1.259Zm.64-12.656a.926.926 0 0 1-.66-.26.862.862 0 0 1-.275-.64.84.84 0 0 1 .274-.633.913.913 0 0 1 .661-.267c.258 0 .478.089.661.267a.84.84 0 0 1 .274.633.862.862 0 0 1-.274.64.926.926 0 0 1-.66.26ZM52.734 8.2v1.09H47.58V8.2h5.154ZM49.19 5.613h1.259V16.18c0 .45.077.804.232 1.062.154.253.356.434.604.542.249.103.514.154.795.154.164 0 .305-.01.422-.028.117-.023.22-.047.309-.07l.267 1.132a2.998 2.998 0 0 1-.45.126 2.921 2.921 0 0 1-.66.064c-.46 0-.903-.101-1.33-.303a2.601 2.601 0 0 1-1.04-.9c-.272-.398-.408-.893-.408-1.483V5.613Zm7.276 6.637V19h-1.252V4.6h1.252v5.295h.112a3.026 3.026 0 0 1 1.174-1.336c.535-.333 1.21-.5 2.025-.5.732 0 1.374.15 1.927.45.553.3.984.743 1.294 1.33.31.585.464 1.307.464 2.165V19h-1.259v-6.919c0-.89-.248-1.591-.745-2.102-.492-.516-1.158-.774-1.997-.774-.577 0-1.09.122-1.54.366-.45.244-.806.595-1.069 1.055-.257.455-.386.996-.386 1.624ZM66.178 19V8.2h1.258V19h-1.258Zm.64-12.656a.926.926 0 0 1-.661-.26.862.862 0 0 1-.275-.64.84.84 0 0 1 .275-.633.913.913 0 0 1 .66-.267c.258 0 .479.089.662.267a.84.84 0 0 1 .274.633.862.862 0 0 1-.275.64.926.926 0 0 1-.66.26Zm4.586 5.906V19h-1.252V8.2h1.217v1.695h.112a3.021 3.021 0 0 1 1.181-1.33c.54-.337 1.205-.506 1.997-.506.727 0 1.364.153 1.913.457.553.3.982.743 1.287 1.33.309.585.464 1.305.464 2.158V19H77.07v-6.919c0-.886-.248-1.586-.745-2.102-.492-.516-1.153-.774-1.983-.774-.567 0-1.071.122-1.512.366-.44.244-.79.595-1.047 1.055-.254.455-.38.996-.38 1.624Z"/></svg>