<svg width="24" height="25" viewBox="0 0 24 25" fill="none" xmlns="http://www.w3.org/2000/svg">
<g id="solar:settings-linear">
<g id="Group">
<path id="Vector" d="M12 15.7515C13.6569 15.7515 15 14.4083 15 12.7515C15 11.0946 13.6569 9.75146 12 9.75146C10.3431 9.75146 9 11.0946 9 12.7515C9 14.4083 10.3431 15.7515 12 15.7515Z" stroke="#4F4F4F" stroke-width="1.5"/>
<path id="Vector_2" d="M13.765 2.90346C13.398 2.75146 12.932 2.75146 12 2.75146C11.068 2.75146 10.602 2.75146 10.235 2.90346C9.99214 3.00398 9.77151 3.15136 9.58569 3.33719C9.39986 3.52302 9.25248 3.74365 9.15196 3.98646C9.05996 4.20946 9.02296 4.47046 9.00896 4.84946C9.00273 5.12345 8.92696 5.39136 8.78877 5.62804C8.65059 5.86471 8.45451 6.06237 8.21896 6.20247C7.97986 6.33651 7.71061 6.40757 7.4365 6.40897C7.16239 6.41036 6.89242 6.34206 6.65196 6.21046C6.31596 6.03246 6.07296 5.93446 5.83196 5.90246C5.30628 5.83334 4.77466 5.97577 4.35396 6.29846C4.03996 6.54146 3.80596 6.94446 3.33996 7.75146C2.87396 8.55846 2.63996 8.96146 2.58896 9.35646C2.5546 9.61692 2.57188 9.88159 2.63983 10.1354C2.70778 10.3891 2.82505 10.627 2.98496 10.8355C3.13296 11.0275 3.33996 11.1885 3.66096 11.3905C4.13396 11.6875 4.43796 12.1935 4.43796 12.7515C4.43796 13.3095 4.13396 13.8155 3.66096 14.1115C3.33996 14.3145 3.13196 14.4755 2.98496 14.6675C2.82505 14.8759 2.70778 15.1138 2.63983 15.3676C2.57188 15.6213 2.5546 15.886 2.58896 16.1465C2.64096 16.5405 2.87396 16.9445 3.33896 17.7515C3.80596 18.5585 4.03896 18.9615 4.35396 19.2045C4.5624 19.3644 4.8003 19.4817 5.05407 19.5496C5.30784 19.6175 5.57251 19.6348 5.83296 19.6005C6.07296 19.5685 6.31596 19.4705 6.65196 19.2925C6.89242 19.1609 7.16239 19.0926 7.4365 19.094C7.71061 19.0954 7.97986 19.1664 8.21896 19.3005C8.70196 19.5805 8.98896 20.0955 9.00896 20.6535C9.02296 21.0335 9.05896 21.2935 9.15196 21.5165C9.25248 21.7593 9.39986 21.9799 9.58569 22.1657C9.77151 22.3516 9.99214 22.499 10.235 22.5995C10.602 22.7515 11.068 22.7515 12 22.7515C12.932 22.7515 13.398 22.7515 13.765 22.5995C14.0078 22.499 14.2284 22.3516 14.4142 22.1657C14.6001 21.9799 14.7474 21.7593 14.848 21.5165C14.94 21.2935 14.977 21.0335 14.991 20.6535C15.011 20.0955 15.298 19.5795 15.781 19.3005C16.0201 19.1664 16.2893 19.0954 16.5634 19.094C16.8375 19.0926 17.1075 19.1609 17.348 19.2925C17.684 19.4705 17.927 19.5685 18.167 19.6005C18.4274 19.6348 18.6921 19.6175 18.9459 19.5496C19.1996 19.4817 19.4375 19.3644 19.646 19.2045C19.961 18.9625 20.194 18.5585 20.66 17.7515C21.126 16.9445 21.36 16.5415 21.411 16.1465C21.4453 15.886 21.428 15.6213 21.3601 15.3676C21.2921 15.1138 21.1749 14.8759 21.015 14.6675C20.867 14.4755 20.66 14.3145 20.339 14.1125C20.1047 13.9701 19.9105 13.7705 19.7746 13.5324C19.6386 13.2943 19.5655 13.0256 19.562 12.7515C19.562 12.1935 19.866 11.6875 20.339 11.3915C20.66 11.1885 20.868 11.0275 21.015 10.8355C21.1749 10.627 21.2921 10.3891 21.3601 10.1354C21.428 9.88159 21.4453 9.61692 21.411 9.35646C21.359 8.96246 21.126 8.55846 20.661 7.75146C20.194 6.94446 19.961 6.54146 19.646 6.29846C19.4375 6.13856 19.1996 6.02128 18.9459 5.95333C18.6921 5.88538 18.4274 5.8681 18.167 5.90246C17.927 5.93446 17.684 6.03246 17.347 6.21046C17.1066 6.34188 16.8368 6.41009 16.5629 6.40869C16.289 6.40729 16.0199 6.33633 15.781 6.20247C15.5454 6.06237 15.3493 5.86471 15.2112 5.62804C15.073 5.39136 14.9972 5.12345 14.991 4.84946C14.977 4.46946 14.941 4.20946 14.848 3.98646C14.7474 3.74365 14.6001 3.52302 14.4142 3.33719C14.2284 3.15136 14.0078 3.00398 13.765 2.90346Z" stroke="#4F4F4F" stroke-width="1.5"/>
</g>
</g>
</svg>
