<svg width="24" height="25" viewBox="0 0 24 25" fill="none" xmlns="http://www.w3.org/2000/svg">
<g id="Icon/sers-outline">
<path id="Vector" d="M15.2 20.2075V20.7408H15.7333V20.2075H15.2ZM4.53333 20.2075H4V20.7408H4.53333V20.2075ZM19.4667 20.2181V20.7515H20V20.2181H19.4667ZM12.5333 8.48267C12.5332 8.83272 12.4641 9.17931 12.33 9.50267C12.1959 9.82602 11.9995 10.1198 11.7518 10.3672C11.5042 10.6146 11.2103 10.8109 10.8868 10.9447C10.5634 11.0785 10.2167 11.1473 9.86667 11.1472V12.2139C11.9285 12.2139 13.6 10.5435 13.6 8.48267H12.5333ZM9.86667 11.1472C9.51662 11.1473 9.16996 11.0785 8.84651 10.9447C8.52305 10.8109 8.22911 10.6146 7.98149 10.3672C7.73387 10.1198 7.5374 9.82602 7.40332 9.50267C7.26923 9.17931 7.20014 8.83272 7.2 8.48267H6.13333C6.13347 8.97279 6.23015 9.45809 6.41784 9.91086C6.60554 10.3636 6.88057 10.775 7.22724 11.1215C7.57392 11.4679 7.98544 11.7427 8.43831 11.9302C8.89118 12.1176 9.37654 12.214 9.86667 12.2139V11.1472ZM7.2 8.48267C7.20014 8.13261 7.26923 7.78602 7.40332 7.46267C7.5374 7.13931 7.73387 6.84554 7.98149 6.59811C8.22911 6.35069 8.52305 6.15446 8.84651 6.02063C9.16996 5.8868 9.51662 5.81799 9.86667 5.81813V4.75146C9.37654 4.75132 8.89118 4.84772 8.43831 5.03516C7.98544 5.22259 7.57392 5.49739 7.22724 5.84387C6.88057 6.19034 6.60554 6.6017 6.41784 7.05447C6.23015 7.50724 6.13347 7.99254 6.13333 8.48267H7.2ZM9.86667 5.81813C10.5735 5.81813 11.2515 6.09879 11.7515 6.59843C12.2516 7.09806 12.5328 7.77579 12.5333 8.48267H13.6C13.5999 7.99254 13.5032 7.50724 13.3155 7.05447C13.1278 6.6017 12.8528 6.19034 12.5061 5.84387C12.1594 5.49739 11.7479 5.22259 11.295 5.03516C10.8422 4.84772 10.3568 4.75132 9.86667 4.75146V5.81813ZM15.2 19.6741H4.53333V20.7408H15.2V19.6741ZM5.06667 20.2075V18.0795H4V20.2075H5.06667ZM7.73333 15.4117H12V14.3451H7.73333V15.4117ZM14.6667 18.0784V20.2075H15.7333V18.0784H14.6667ZM12 15.4117C12.7072 15.4117 13.3855 15.6927 13.8856 16.1928C14.3857 16.6929 14.6667 17.3712 14.6667 18.0784H15.7333C15.7333 17.0883 15.34 16.1387 14.6399 15.4385C13.9397 14.7384 12.9901 14.3451 12 14.3451V15.4117ZM5.06667 18.0795C5.06667 17.3722 5.34762 16.6929 5.84772 16.1928C6.34781 15.6927 7.02609 15.4117 7.73333 15.4117V14.3451C6.74319 14.3451 5.7936 14.7384 5.09347 15.4385C4.39333 16.1387 4 17.0893 4 18.0795H5.06667ZM18.9333 18.6181V20.2181H20V18.6181H18.9333ZM19.4667 19.6848H16.8V20.7515H19.4667V19.6848ZM16.8 16.4848C17.3658 16.4848 17.9084 16.7096 18.3085 17.1096C18.7086 17.5097 18.9333 18.0523 18.9333 18.6181H20C20 17.7694 19.6629 16.9555 19.0627 16.3554C18.4626 15.7553 17.6487 15.4181 16.8 15.4181V16.4848ZM16.2667 13.2848C15.8423 13.2848 15.4354 13.1162 15.1353 12.8162C14.8352 12.5161 14.6667 12.1091 14.6667 11.6848H13.6C13.6 12.392 13.881 13.0703 14.381 13.5704C14.8811 14.0705 15.5594 14.3515 16.2667 14.3515V13.2848ZM17.8667 11.6848C17.8667 12.1091 17.6981 12.5161 17.398 12.8162C17.098 13.1162 16.691 13.2848 16.2667 13.2848V14.3515C16.9739 14.3515 17.6522 14.0705 18.1523 13.5704C18.6524 13.0703 18.9333 12.392 18.9333 11.6848H17.8667ZM16.2667 10.0848C16.691 10.0848 17.098 10.2534 17.398 10.5534C17.6981 10.8535 17.8667 11.2605 17.8667 11.6848H18.9333C18.9333 10.9776 18.6524 10.2993 18.1523 9.79918C17.6522 9.29908 16.9739 9.01813 16.2667 9.01813V10.0848ZM16.2667 9.01813C15.5594 9.01813 14.8811 9.29908 14.381 9.79918C13.881 10.2993 13.6 10.9776 13.6 11.6848H14.6667C14.6667 11.2605 14.8352 10.8535 15.1353 10.5534C15.4354 10.2534 15.8423 10.0848 16.2667 10.0848V9.01813Z" fill="#181A1B"/>
</g>
</svg>
