<svg width="25" height="24" viewBox="0 0 25 24" fill="none" xmlns="http://www.w3.org/2000/svg">
<path d="M22.0952 6.83182H1.91264C1.90408 6.83182 1.89587 6.83522 1.88982 6.84127C1.88377 6.84732 1.88037 6.85553 1.88037 6.86408C1.88087 9.48066 1.88062 12.1032 1.87962 14.7318C1.87962 15.1645 2.05144 15.4676 2.39509 15.6412C2.55715 15.7227 2.799 15.7603 3.12064 15.7537C3.83893 15.7392 4.57248 15.7385 5.32129 15.7515C5.32667 15.7515 5.33182 15.7537 5.33562 15.7577C5.33942 15.7616 5.34155 15.7669 5.34155 15.7725V17.592C5.34155 17.611 5.3323 17.6205 5.31379 17.6205C4.48895 17.621 3.65586 17.6208 2.81451 17.6198C2.57816 17.6198 2.28254 17.5928 2.0582 17.52C1.03127 17.1848 0.376504 16.5126 0.0938871 15.5031C0.0173555 15.2278 0.00535071 14.9037 0.00610102 14.6088C0.0106029 10.7247 0.00860191 7.0374 9.84014e-05 3.54696C-0.00190242 2.84467 0.0266093 2.37948 0.0856336 2.15139C0.29422 1.34606 0.763913 0.740555 1.49471 0.334888C1.98692 0.0617754 2.46186 0.00100053 3.03435 0.00100053C9.12836 1.18723e-07 15.1448 -0.000250145 21.0838 0.000250062C21.5005 0.000750268 21.8674 0.0612751 22.1845 0.181825C22.5431 0.318381 22.862 0.521215 23.1411 0.790326C23.7219 1.35206 24.0113 2.07185 24.0093 2.94972C23.9997 6.57571 24.0005 10.2467 24.0115 13.9628C24.0135 14.6761 23.9882 15.1568 23.9357 15.4049C23.7309 16.3728 23.0031 17.1823 22.0494 17.4877C21.7488 17.5843 21.3649 17.63 20.8977 17.625C20.1159 17.617 19.3999 17.6165 18.7496 17.6235C18.7181 17.624 18.7023 17.6083 18.7023 17.5763V15.7763C18.7023 15.7685 18.7053 15.7611 18.7107 15.7556C18.716 15.7501 18.7233 15.747 18.7308 15.747C19.4916 15.7425 20.274 15.7432 21.0778 15.7492C21.2854 15.7507 21.467 15.713 21.6225 15.636C21.9607 15.4679 22.1297 15.1638 22.1297 14.7236C22.1297 12.1315 22.1295 9.51242 22.129 6.86633C22.129 6.85718 22.1254 6.8484 22.1191 6.84193C22.1128 6.83546 22.1042 6.83182 22.0952 6.83182ZM1.92914 4.03917H22.0825C22.0903 4.03917 22.0981 4.03761 22.1054 4.0346C22.1127 4.03158 22.1193 4.02716 22.1249 4.02159C22.1305 4.01601 22.1349 4.00939 22.1379 4.00211C22.1409 3.99483 22.1425 3.98702 22.1425 3.97914V2.8987C22.1425 2.62607 22.0324 2.36462 21.8366 2.17184C21.6407 1.97907 21.3751 1.87077 21.0981 1.87077H2.91355C2.63655 1.87077 2.3709 1.97907 2.17503 2.17184C1.97916 2.36462 1.86912 2.62607 1.86912 2.8987V3.97914C1.86912 3.99506 1.87544 4.01033 1.8867 4.02159C1.89796 4.03284 1.91322 4.03917 1.92914 4.03917Z" fill="currentColor"/>
<path d="M15.5438 8.25H3.21617C3.20249 8.25 3.19141 8.26108 3.19141 8.27476V10.0995C3.19141 10.1132 3.20249 10.1243 3.21617 10.1243H15.5438C15.5574 10.1243 15.5685 10.1132 15.5685 10.0995V8.27476C15.5685 8.26108 15.5574 8.25 15.5438 8.25Z" fill="currentColor"/>
<path d="M12.9836 20.3999L15.4852 17.8961C15.4898 17.8916 15.496 17.8891 15.5024 17.8891C15.5089 17.8891 15.5151 17.8916 15.5197 17.8961L16.8132 19.1904C16.8177 19.195 16.8202 19.2012 16.8202 19.2077C16.8202 19.2141 16.8177 19.2203 16.8132 19.2249L12.042 23.9954C12.0374 23.9999 12.0312 24.0024 12.0247 24.0024C12.0183 24.0024 12.0121 23.9999 12.0075 23.9954L7.23552 19.2234C7.23103 19.2188 7.22852 19.2126 7.22852 19.2062C7.22852 19.1997 7.23103 19.1935 7.23552 19.1889L8.5268 17.8976C8.53142 17.8931 8.53762 17.8906 8.54406 17.8906C8.5505 17.8906 8.5567 17.8931 8.56132 17.8976L11.0246 20.3609C11.0281 20.3643 11.0325 20.3666 11.0373 20.3675C11.0421 20.3684 11.0471 20.3678 11.0516 20.3659C11.0561 20.364 11.0599 20.3608 11.0626 20.3567C11.0653 20.3526 11.0667 20.3478 11.0666 20.3429L11.0674 12.8293C11.0674 12.8227 11.07 12.8164 11.0746 12.8118C11.0792 12.8071 11.0855 12.8045 11.0921 12.8045L12.9176 12.8008C12.9242 12.8008 12.9305 12.8034 12.9351 12.808C12.9398 12.8127 12.9424 12.819 12.9424 12.8255L12.9416 20.3819C12.9416 20.3868 12.943 20.3916 12.9456 20.3957C12.9483 20.3998 12.9521 20.403 12.9566 20.4049C12.9611 20.4068 12.9661 20.4074 12.9709 20.4065C12.9757 20.4056 12.9801 20.4033 12.9836 20.3999Z" fill="currentColor"/>
</svg>
